<?xml version="1.0" encoding="UTF-8"?>
<svg width="301px" height="399px" viewBox="0 0 301 399" version="1.1" xmlns="http://www.w3.org/2000/svg" xmlns:xlink="http://www.w3.org/1999/xlink">
    <title>ESL Pro League</title>
    <g id="Logo-Update" stroke="none" stroke-width="1" fill="none" fill-rule="evenodd">
        <g id="logo/EPL" transform="translate(-49.000000, -1.000000)" fill-rule="nonzero">
            <g id="ESL-Pro-League" transform="translate(49.000000, 1.000000)">
                <path d="M39.8247002,299 L11,299 L11,116 L54.5008455,116 C66.8163618,116 77.2988396,119.920501 84.898171,126.980439 C90.9265681,132.471501 98,142.927295 98,160.965984 L98,180.835028 C98,199.13351 90.9265681,209.59099 84.898171,215.080366 C77.2988396,222.138617 66.8163618,225.799325 54.5008455,225.799325 L39.8247002,225.799325 L39.8247002,299 Z M39.8247002,197.043363 L54.5008455,197.043363 C57.9082004,197.043363 62.3622811,196.520405 65.2437365,193.905613 C68.3906781,191.037777 69.1752998,185.278487 69.1752998,180.835028 L69.1752998,160.965984 C69.1752998,156.782317 68.3906781,151.029775 65.2437365,147.893712 C62.3690451,145.27892 57.9082004,144.755962 54.5008455,144.755962 L39.8247002,144.755962 L39.8247002,197.043363 Z" id="Shape" fill="#FFFF09"></path>
                <path d="M196.215378,299 L166.86647,299 L151.92822,225.537846 L138.8247,225.537846 L138.8247,299 L110,299 L110,116 L153.500845,116 C165.816362,116 176.29884,119.920501 183.898171,126.980439 C189.926568,132.471501 197,142.927295 197,160.965984 L197,180.571862 C197,198.873717 189.926568,209.329511 183.898171,214.8172 C182.620515,216.089904 181.215258,217.228386 179.704503,218.214742 L196.215378,299 Z M168.1753,160.965984 C168.1753,156.782317 167.390678,151.029775 164.243737,147.893712 C161.369045,145.27892 156.9082,144.755962 153.500845,144.755962 L138.8247,144.755962 L138.8247,196.780197 L153.500845,196.780197 C156.9082,196.780197 161.362281,196.258926 164.243737,193.644134 C167.390678,190.776298 168.1753,185.017008 168.1753,180.571862 L168.1753,160.965984 Z" id="Shape" fill="#FFFF09"></path>
                <path d="M257.499155,299 C245.184117,299 234.702047,295.364018 227.10132,288.350211 C221.076539,282.633891 214,272.503767 214,254.320505 L214,157.679495 C214,139.496233 221.076539,129.362756 227.10132,123.649789 C234.702047,116.634305 245.184117,113 257.499155,113 C269.814192,113 280.296262,116.634305 287.895298,123.649789 C293.923461,129.364433 301,139.497909 301,157.679495 L301,254.317153 C301,272.503767 293.923461,282.633891 287.895298,288.346858 C280.296262,295.364018 269.814192,299 257.499155,299 Z M257.499155,141.573218 C254.093623,141.573218 249.638025,142.092884 246.75499,144.691211 C243.611553,147.540989 242.825271,153.522171 242.825271,157.679495 L242.825271,254.317153 C242.825271,258.474476 243.611553,264.450629 246.75499,267.307113 C249.62957,269.90544 254.093623,270.425105 257.499155,270.425105 C260.904686,270.425105 265.62407,269.90544 268.243319,267.307113 C271.64885,264.457334 272.173038,258.474476 272.173038,254.317153 L272.173038,157.679495 C272.173038,153.522171 271.64885,147.549371 268.243319,144.691211 C265.62407,142.092884 260.906377,141.573218 257.499155,141.573218 Z" id="Shape" fill="#FFFF09"></path>
                <polygon id="Path" fill="#FFFF09" points="42 386.214626 36.5497674 398 11 398 11 323 22.7604925 323 22.7604925 386.214626"></polygon>
                <polygon id="Path" fill="#FFFF09" points="84.5600339 334.786807 69.7414577 334.786807 69.7414577 353.644339 86.2729292 353.644339 80.9395959 365.427746 69.7414577 365.427746 69.7414577 386.214893 90 386.214893 84.5600339 398 58 398 58 323 90 323"></polygon>
                <path d="M130.783537,386.099016 L117.214754,386.099016 L115.059812,398 L103,398 L118.076047,323 L129.923953,323 L145,398 L132.938479,398 L130.783537,386.099016 Z M128.73284,374.313642 L123.995728,347.420819 L119.255198,374.313642 L128.73284,374.313642 Z" id="Shape" fill="#FFFF09"></path>
                <path d="M186.078386,347.841412 L186.078386,341.261679 C186.078386,339.566236 185.861723,337.124933 184.563466,335.958158 C183.2441,335.027358 181.634324,334.576595 180.011827,334.683629 C178.424622,334.591394 176.853988,335.041919 175.56852,335.958158 C174.374658,337.467905 173.795606,339.357792 173.943549,341.261679 L173.943549,380.733344 C173.795108,382.637283 174.374212,384.527342 175.56852,386.036865 C176.853988,386.953104 178.424622,387.403628 180.011827,387.311393 C181.634324,387.418427 183.2441,386.967665 184.563466,386.036865 C185.861723,384.871774 186.078386,382.43047 186.078386,380.733344 L186.078386,366.836435 L180.120159,366.836435 L185.645061,355.165322 L198,355.165322 L198,380.736711 C198,388.163324 195.076771,392.301754 192.58171,394.635303 C189.115996,397.609146 184.616382,399.16651 180.011827,398.985874 C175.41259,399.129182 170.92602,397.576544 167.440225,394.635303 C163.732141,390.945925 161.767729,385.906961 162.021935,380.736711 L162.021935,341.261679 C161.767729,336.091429 163.732141,331.052465 167.440225,327.363087 C170.92619,324.422309 175.412792,322.870261 180.011827,323.0142 C184.616149,322.833101 189.115735,324.389853 192.58171,327.363087 C195.075052,329.696636 198,333.835066 198,341.261679 L198,347.841412 L186.078386,347.841412 Z" id="Path" fill="#FFFF09"></path>
                <path d="M231.98898,397.985899 C227.384219,398.16621 222.884403,396.611655 219.418533,393.643178 C216.926799,391.313838 214,387.182875 214,379.76966 L214,323 L225.920429,323 L225.920429,379.76966 C225.920429,381.463725 226.137102,383.900624 227.437137,385.063613 C228.756434,385.992992 230.36638,386.442968 231.98898,386.335842 C233.576241,386.42777 235.146897,385.978072 236.432487,385.063613 C237.627313,383.556977 238.207045,381.670363 238.059251,379.76966 L238.059251,323 L249.977961,323 L249.977961,379.76966 C250.232815,384.930682 248.26822,389.960796 244.559428,393.643178 C241.074175,396.579148 236.587916,398.129019 231.98898,397.985899 Z" id="Path" fill="#FFFF09"></path>
                <polygon id="Path" fill="#FFFF09" points="292.560034 334.787074 277.732995 334.787074 277.732995 353.645033 294.266159 353.645033 288.931133 365.427007 277.731302 365.427007 277.731302 386.214626 297.998307 386.214626 292.558341 398 266 398 266 323 298 323"></polygon>
                <path d="M114,68.4775839 C114.002782,77.6034606 121.555392,85 130.871048,85 L172,85 L172,68.4775839 L133.280718,68.4775839 L133.280718,56.6335581 L169.459351,56.6335581 L169.459351,41.9699961 L133.280718,41.9699961 L133.280718,30.5273511 L172,30.5273511 L172,14 L130.859294,14 C121.548163,14 114,21.3943917 114,30.5158361 L114,68.4775839 Z" id="Path" fill="#FFFFFF"></path>
                <path d="M239,63.475128 L239,63.475128 C238.995337,51.5968412 229.112919,41.9699952 216.923951,41.9699961 L199.381951,41.9699961 L199.381951,30.5273511 L235.495648,30.5273511 L235.495648,14 L201.876859,14 C189.794603,14 180,23.5449518 180,35.3192465 L180,35.3192465 C180.002796,47.091614 189.796581,56.6335584 201.876859,56.6335581 L219.618045,56.6335581 L219.618045,68.4775839 L183.504349,68.4775839 L183.504349,85 L216.927327,85 C222.783721,84.999128 228.399774,82.7305828 232.539445,78.6936496 C236.679116,74.6567164 239.003132,69.1822499 239,63.475128 L239,63.475128 Z" id="Path" fill="#FFFFFF"></path>
                <path d="M261.424667,85 L297,85 L297,68.4775839 L263.777823,68.4775839 L263.777823,14 L245,14 L245,68.4775839 C245.002708,77.6015338 252.354696,84.997276 261.424667,85 Z" id="Path" fill="#FFFFFF"></path>
                <ellipse id="Oval" fill="#FFFFFF" transform="translate(51.370560, 50.851224) rotate(-9.207969) translate(-51.370560, -50.851224) " cx="51.3705597" cy="50.8512235" rx="44.4947413" ry="44.2890491"></ellipse>
                <path d="M52.6590465,13 L19,66.2007476 C20.1096898,68.2551686 21.4173671,70.1973828 22.9045904,72 L74,21.1500297 C67.9599885,16.2062528 60.4714204,13.3463968 52.6590465,13 L52.6590465,13 Z" id="Path" fill="#000000"></path>
                <path d="M78.9398541,30 L28,81.106953 C29.8238836,82.5914982 31.7868241,83.8952703 33.8613153,85 L87,51.4226798 C86.6972471,43.5942975 83.8686523,36.0763096 78.9398541,30 L78.9398541,30 Z" id="Path" fill="#000000"></path>
                <path d="M87,58 L42,84.0803077 C51.7319643,86.1966313 61.9798128,84.6263732 70.4415612,79.722262 C78.9033097,74.8181509 84.8695212,66.9913496 87,58 L87,58 Z" id="Path" fill="#000000"></path>
            </g>
        </g>
    </g>
</svg>